<?xml version="1.0" standalone="no"?>
<!DOCTYPE svg PUBLIC "-//W3C//DTD SVG 20010904//EN"
 "http://www.w3.org/TR/2001/REC-SVG-20010904/DTD/svg10.dtd">
<svg version="1.0" xmlns="http://www.w3.org/2000/svg"
 width="400.000000pt" height="400.000000pt" viewBox="0 0 400.000000 400.000000"
 preserveAspectRatio="xMidYMid meet">
<metadata>
Created by potrace 1.11, written by Peter Selinger 2001-2013
</metadata>
<g transform="translate(0.000000,400.000000) scale(0.100000,-0.100000)"
fill="#000000" stroke="none">
<path d="M0 2000 l0 -2000 2000 0 2000 0 0 2000 0 2000 -2000 0 -2000 0 0
-2000z m2570 370 l0 -370 -135 0 -135 0 0 370 0 370 135 0 135 0 0 -370z m445
345 c114 -31 184 -73 276 -165 96 -95 142 -175 181 -316 18 -66 22 -105 22
-239 -1 -145 -3 -168 -28 -250 -38 -125 -86 -207 -175 -296 -56 -56 -96 -85
-151 -112 -138 -67 -158 -70 -527 -75 l-333 -3 0 300 0 301 140 0 140 0 0
-175 0 -175 133 0 c217 0 306 27 396 119 94 96 136 234 128 411 -15 296 -173
450 -464 450 l-73 0 0 126 0 127 138 -6 c77 -3 163 -13 197 -22z m-1860 -395
c113 -225 207 -410 210 -410 3 0 97 185 210 410 l205 410 145 0 145 0 0 -730
0 -730 -135 0 -135 0 0 478 -1 477 -177 -350 -177 -350 -80 -3 -80 -3 -177
353 -177 353 0 -477 -1 -478 -135 0 -135 0 0 730 0 730 145 0 145 0 205 -410z"/>
</g>
</svg>
