<svg width="242" height="239" fill="none" xmlns="http://www.w3.org/2000/svg"><path d="M168.455 229.417a120.552 120.552 0 0038.105-25.418 118.991 118.991 0 0025.746-37.652c.153-.369.316-.738.47-1.117.153-.379.316-.758.47-1.136A117.567 117.567 0 00242 119.5a117.503 117.503 0 00-8.754-44.594 42.849 42.849 0 00-.47-1.145l-.47-1.118a118.86 118.86 0 00-25.746-37.642C185.461 14.04 157.199 1.617 127.309.16h-.105c-.892 0-1.774-.076-2.666-.104h-7.086c-.882 0-1.774.057-2.665.104h-.106C84.794 1.615 56.535 14.04 35.441 35A118.665 118.665 0 009.693 72.633l-.489 1.146-.46 1.117A117.53 117.53 0 000 119.5a117.567 117.567 0 008.745 44.603l.46 1.108.49 1.146a118.803 118.803 0 0025.745 37.642 120.403 120.403 0 0038.096 25.418l1.199.492 1.083.436A121.57 121.57 0 00121 239a121.564 121.564 0 0045.173-8.655l1.093-.436 1.189-.492zm-2.072-1.62l-1.073.436a120.446 120.446 0 01-43.926 8.419l-14.815-13.41 14.843-12.045h4.804l1.189-.076h.413l.661-.048 1.045-.094h.547l.623-.057.959-.104.528-.066h.69l.901-.114.499-.076c.537-.076 1.083-.151 1.62-.246l.461-.066 1.668-.294.393-.076 1.755-.341.288-.066 1.917-.417h.144a92.91 92.91 0 0035.21-16.6l.24-.19 1.476-1.155.422-.341.604-.492.652-.55.556-.464.528-.454.115-.095c.153-.142.307-.284.47-.417l.613-.549.355-.312.077-.076.547-.502.115-.104.575-.53.22-.209.796-.776.595-.568.105-.114.959-1.013.451-.455.105-.114 1.036-1.089.355-.388.153-.161 1.036-1.155c.076-.095.163-.18.239-.265 11.82-13.377 19.411-29.881 21.834-47.473v-.17l.23-1.837v-.474c.057-.53.115-1.06.163-1.6v-.739c0-.445.077-.947.105-1.345v-2.954l10.548 14.669a1.133 1.133 0 00.882.483h.058a1.156 1.156 0 00.872-.379l13.492-15.152a116.503 116.503 0 01-8.477 40.597l-.47 1.137-.46 1.079c-12.072 27.792-34.495 49.94-62.633 61.867l-.883.17zm-90.786 0l-1.15-.483c-28.136-11.925-50.559-34.069-62.634-61.857l-.46-1.108c-.166-.372-.32-.742-.46-1.108a116.248 116.248 0 01-8.524-43.362l13.577-14.631 12.197 14.659v2.216c0 .682 0 1.364.086 2.036v.076c1.134 22.653 10.787 44.073 27.07 60.067l1.639 1.582.604.549 1.064.947.748.653c.317.275.633.559.96.824.325.265.536.455.814.682l.911.758.844.672c.307.246.613.492.959.729l.834.644.959.729.805.578c.355.256.71.511 1.074.758l.72.501 1.246.834.575.379c.508.331 1.026.653 1.544.947l.278.179a93.158 93.158 0 0030.291 11.961l.844.17 1.294.247 1.141.189 1.036.17 1.246.18.959.133 1.295.161.959.104 1.294.133.959.085 1.266.095 1.026.066 1.208.057h1.15l-13.759 11.174a1.113 1.113 0 00-.432.852 1.177 1.177 0 00.384.872l13.884 12.576a120.53 120.53 0 01-41.231-8.381l-1.094-.294zM11.353 74.641l.46-1.098c8.73-20.167 23.004-37.516 41.205-50.082C71.22 10.895 92.62 3.614 114.796 2.443h.115c.863 0 1.736-.076 2.608-.104h3.031l14.871 13.466-14.843 12.046h-1.917a93.907 93.907 0 00-6.713.407l-1.361.142-.758.085c-.623.067-1.246.152-1.87.237h-.201c-15.533 2.172-30.244 8.24-42.727 17.623l-.144.095-1.477 1.146-.383.294-1.256 1.013-.182.151-.403.341-1.017.862-.738.635-.882.786-.26.236-.066.057-.45.417-.116.113c-.24.209-.47.426-.7.644l-.201.18-.729.71-.652.626-.115.113-1.122 1.146-.441.445a70.28 70.28 0 00-1.18 1.26l-.364.378-.834.947c-12.06 13.456-19.808 30.141-22.265 47.946a1.039 1.039 0 000 .171c-.086.615-.163 1.231-.24 1.846 0 .152 0 .313-.048.464-.057.531-.115 1.061-.163 1.601v.738c0 .455-.076.947-.105 1.345l-.058.947c0 .256 0 .511-.048.758v1.288l-10.5-14.679a1.153 1.153 0 00-.881-.483 1.155 1.155 0 00-.96.389l-13.49 15.151a116.383 116.383 0 018.485-40.606c.07-.41.173-.802.307-1.175zM127.08 2.434h.115c22.177 1.171 43.579 8.453 61.78 21.021 18.202 12.568 32.475 29.92 41.203 50.088l.46 1.07.47 1.136a116.467 116.467 0 018.515 43.372l-14.297 16.042-11.506-16.042v-2.026c0-.474 0-.947-.058-1.421v-.558a2.036 2.036 0 000-.247c0-.464-.057-.947-.086-1.401v-.483c-1.215-17.691-7.652-34.643-18.516-48.76l-.182-.247c-.355-.454-.71-.947-1.074-1.354-.125-.17-.259-.331-.393-.502l-.959-1.117-.182-.227-.412-.474-.796-.947-.71-.805-.738-.805-.24-.256-.067-.075-.499-.53-.076-.076-.604-.644-.183-.18c-.268-.284-.546-.559-.815-.834l-.546-.549-.106-.095-1.074-1.041-.422-.407-.105-.095-1.16-1.07-.336-.303-.172-.161-1.218-1.06-.221-.2c-13.542-11.665-30.245-19.16-48.049-21.563h-.22l-1.813-.227-.537-.057-1.553-.151h-.816l-1.314-.104-.959-.057-.728-.047h-1.314l14.853-10.417a1.125 1.125 0 00.489-.872 1.158 1.158 0 00-.384-.947L124.183 2.35h.365c.796.009 1.668.037 2.531.085zM30.57 124.083c0-.662-.058-1.325-.077-1.988v-6.951c0-.265 0-.54.048-.815 0-.464.058-.947.096-1.401l.058-.729c0-.493.086-.947.134-1.487 0-.227 0-.455.067-.672.067-.597.134-1.194.21-1.781v-.236c2.547-19.425 11.497-37.483 25.469-51.384l22.734 1.411-.604 20.436c-9.447 9.427-15.339 21.767-16.694 34.963a.264.264 0 000 .085 55.957 55.957 0 00-.201 2.547v.436a50.352 50.352 0 00-.077 2.983c0 1.004 0 1.989.077 2.974v.435c0 .852.115 1.705.201 2.548a.263.263 0 000 .085c1.252 12.341 6.482 23.959 14.92 33.144l-20.865-.947a1.175 1.175 0 00-.853.313 1.154 1.154 0 00-.355.833v21.781c-14.655-15.372-23.306-35.384-24.413-56.469a.26.26 0 00.125-.114zm125.075 78.023l-.863.34a92.15 92.15 0 01-67.572 0l-.863-.34-.853-.351a91.168 91.168 0 01-28.143-18.731l1.429-22.453 20.692.596c9.543 9.329 22.034 15.147 35.392 16.487h.096c.854.086 1.717.142 2.58.19h.441a52.07 52.07 0 003.02.075c1.017 0 2.014.001 3.011-.075h.441c.863 0 1.726-.104 2.579-.19h.096c12.495-1.235 24.258-6.396 33.561-14.725l-.959 20.597a1.116 1.116 0 00.316.843 1.148 1.148 0 00.835.35h22.054a90.99 90.99 0 01-26.408 17.046l-.882.341zM80.66 55.834L58.894 54.49c15.59-14.582 35.935-23.194 57.379-24.29h.077l2.023-.075h7.843l1.439.094.7.057 1.563.133.632.066 1.851.208h.192c19.694 2.519 37.999 11.375 52.086 25.2v22.973l-22.054-1.032a58.667 58.667 0 00-15.678-10.985l-.479-.237c-.566-.265-1.151-.52-1.726-.776l-1.103-.464-1.151-.455c-.575-.217-1.16-.445-1.745-.644l-.537-.18a59.553 59.553 0 00-38.412 0l-.537.18c-.585.2-1.16.427-1.745.644l-1.15.455-1.103.464c-.576.256-1.16.511-1.727.776l-.47.237A58.34 58.34 0 0081.218 76.1l.556-19.215a1.14 1.14 0 00-.355-.734 1.167 1.167 0 00-.758-.317zm130.762 59.073c0 .663.057 1.326.076 1.998v5.512c0 .473 0 .947-.048 1.43v.814c0 .464-.057.947-.095 1.402 0 .246 0 .483-.058.729 0 .502-.086.947-.134 1.496 0 .218 0 .445-.067.672l-.202 1.771v.237c-2.553 19.425-11.505 37.481-25.477 51.383l-22.735-1.411.604-20.436c9.448-9.427 15.34-21.766 16.694-34.962v-.085c.087-.843.144-1.696.192-2.548v-.435c.058-.947.077-1.98.077-2.974 0-.994 0-1.998-.077-2.983v-.436c0-.852-.105-1.704-.192-2.547v-.085c-1.254-12.339-6.48-23.955-14.91-33.145l20.855.947h.058a1.19 1.19 0 00.796-.312 1.124 1.124 0 00.354-.824v-21.78c14.657 15.374 23.309 35.39 24.413 56.477 0 0-.124.067-.124.095zm-147.245 1.724v-.408c.048-.823.106-1.647.192-2.452a.264.264 0 010-.085 55.874 55.874 0 019.978-26.38 56.816 56.816 0 0121.665-18.309l.412-.198a67.36 67.36 0 011.707-.768l1.016-.435 1.151-.445c.547-.209 1.084-.417 1.63-.606l.556-.19a57.455 57.455 0 015.964-1.648 57.783 57.783 0 0112.466-1.373 57.76 57.76 0 0118.506 3.04l.47.161c.575.199 1.151.417 1.716.635l1.065.416 1.102.474c.547.236 1.084.473 1.621.729l.489.237a56.954 56.954 0 0114.891 10.417 1.162 1.162 0 00.671.663c9.061 9.062 14.726 20.903 16.061 33.57a.303.303 0 000 .085c.077.805.135 1.629.183 2.453v.407c0 .947.067 1.894.067 2.841 0 .947 0 1.894-.067 2.841v.407c0 .824-.106 1.648-.183 2.463a.19.19 0 000 .075c-1.334 12.663-6.995 24.5-16.051 33.561a1.13 1.13 0 00-.671.663c-9.177 8.949-21.166 14.543-33.992 15.862h-.077c-.825.076-1.659.133-2.493.18h-.412c-.959 0-1.918.066-2.877.066-.959 0-1.918 0-2.877-.066h-.412c-.834 0-1.668-.104-2.483-.18h-.087c-12.822-1.318-24.807-6.909-33.982-15.852a1.154 1.154 0 00-.671-.663c-9.062-9.061-14.724-20.903-16.052-33.571a.23.23 0 010-.075 52.194 52.194 0 01-.192-2.463v-.407a56.238 56.238 0 01-.076-2.841c0-.947.028-1.884.076-2.831z" fill="gray"/><path d="M120.837 107.379v24.195h-4.766v-15.881l-6.29 11.828h-2.665l-6.281-11.828v15.881h-4.766v-24.195h5.111l7.249 13.769 7.326-13.769h5.082zm25.094 12.083a13.43 13.43 0 01-1.515 6.515 10.49 10.49 0 01-4.277 4.3 13.186 13.186 0 01-6.52 1.534h-9.071v-9.943h4.852v5.738h4.219a7.37 7.37 0 004.046-1.051 6.79 6.79 0 002.513-2.917 9.775 9.775 0 00.862-4.176 9.626 9.626 0 00-.882-4.214 6.654 6.654 0 00-2.531-2.841 7.468 7.468 0 00-4.008-1.032h-2.071v-4.186h2.071a13.15 13.15 0 016.827 1.639 10.456 10.456 0 014.113 4.441 13.911 13.911 0 011.372 6.193z" fill="gray"/><path d="M129.63 107.189h-4.794V119.5h4.794v-12.311z" fill="gray"/></svg>