<svg width="241" height="241" fill="none" xmlns="http://www.w3.org/2000/svg"><path d="M17.407 60.993v119.023L120.5 239.547v-89.282H68.924l17.182-29.75-17.182-29.77h51.547V1.462L17.406 60.993zm0-.009H120.5" stroke="gray" stroke-width="3" stroke-linecap="round" stroke-linejoin="round"/><path d="M120.5 239.537l-34.365-59.521-17.182-29.76-17.182-29.751-34.364-59.521" stroke="gray" stroke-width="3" stroke-linecap="round" stroke-linejoin="round"/><path d="M17.407 180.016l34.364-59.511 17.182-29.76 17.182-29.761L120.5 1.463m0 148.793v89.281m0-238.074v89.281m0-29.76l-17.182 29.76m-34.365 59.512l17.182-29.751 8.592 14.87 8.591 14.881m-85.911 29.76H120.5m0 0l-17.182-29.76" stroke="gray" stroke-width="3" stroke-linecap="round" stroke-linejoin="round"/><path d="M120.5 90.744v59.512h-17.182l-8.591-14.881-8.592-14.87 17.183-29.76H120.5z" stroke="gray" stroke-width="3" stroke-linecap="round" stroke-linejoin="round"/><path d="M68.953 90.744h34.365l-17.183 29.761M120.5 1.472a119.05 119.05 0 01110.012 73.48 119.028 119.028 0 01-25.801 129.73 119.04 119.04 0 01-84.172 34.865" stroke="gray" stroke-width="3" stroke-linecap="round" stroke-linejoin="round"/><path d="M120.5 21.004a99.517 99.517 0 0199.515 99.462 99.456 99.456 0 01-29.151 70.347 99.464 99.464 0 01-70.364 29.115" stroke="gray" stroke-width="3" stroke-linecap="round" stroke-linejoin="round"/><path d="M120.5 41.803a78.71 78.71 0 0178.715 78.712 78.711 78.711 0 01-78.715 78.701m-1.131-138.223a59.483 59.483 0 110 118.965m.507-88.697a29.254 29.254 0 110 58.507M1.463 120.505H120.5M68.953 90.744l-51.547-29.76m51.547 89.272l-51.547 29.76m85.912-29.76l-42.332 73.328m42.332-132.84L60.977 17.406m0 0L120.5 1.472M17.407 60.984l43.57-43.578M1.463 120.505l15.944-59.521m0 119.032L1.463 120.505m59.523 103.079l-43.58-43.568M120.5 239.537l-59.514-15.953" stroke="gray" stroke-width="3" stroke-linecap="round" stroke-linejoin="round"/></svg>