<svg width="241" height="241" viewBox="0 0 241 241" fill="none" xmlns="http://www.w3.org/2000/svg">
<path d="M17.4065 60.9935V180.016L120.5 239.547V150.265H68.924L86.1064 120.515L68.924 90.7444H120.471V1.46265L17.4065 60.9935Z" stroke="#808080" stroke-width="3" stroke-linecap="round" stroke-linejoin="round"/>
<path d="M17.4065 60.9838H86.1355H120.5" stroke="#808080" stroke-width="3" stroke-linecap="round" stroke-linejoin="round"/>
<path d="M120.5 239.537L86.1355 180.016L68.9533 150.256L51.771 120.505L17.4065 60.9838" stroke="#808080" stroke-width="3" stroke-linecap="round" stroke-linejoin="round"/>
<path d="M17.4065 180.016L51.771 120.505L68.9533 90.7443L86.1355 60.9838L120.5 1.46265" stroke="#808080" stroke-width="3" stroke-linecap="round" stroke-linejoin="round"/>
<path d="M120.5 150.256V180.016V239.537" stroke="#808080" stroke-width="3" stroke-linecap="round" stroke-linejoin="round"/>
<path d="M120.5 1.46265V60.9837V90.7443" stroke="#808080" stroke-width="3" stroke-linecap="round" stroke-linejoin="round"/>
<path d="M120.5 60.9838L103.318 90.7443" stroke="#808080" stroke-width="3" stroke-linecap="round" stroke-linejoin="round"/>
<path d="M68.9533 150.256L86.1355 120.505L94.7266 135.375L103.318 150.256" stroke="#808080" stroke-width="3" stroke-linecap="round" stroke-linejoin="round"/>
<path d="M17.4065 180.016H86.1355H120.5" stroke="#808080" stroke-width="3" stroke-linecap="round" stroke-linejoin="round"/>
<path d="M120.5 180.016L103.318 150.256" stroke="#808080" stroke-width="3" stroke-linecap="round" stroke-linejoin="round"/>
<path d="M120.5 90.7444V150.256H103.318L94.7266 135.375L86.1355 120.505L103.318 90.7444H120.5Z" stroke="#808080" stroke-width="3" stroke-linecap="round" stroke-linejoin="round"/>
<path d="M68.9533 90.7444H103.318L86.1355 120.505" stroke="#808080" stroke-width="3" stroke-linecap="round" stroke-linejoin="round"/>
<path d="M120.5 1.47242C136.136 1.46857 151.619 4.54486 166.066 10.5256C180.513 16.5063 193.64 25.2743 204.698 36.3288C215.755 47.3832 224.527 60.5076 230.512 74.9524C236.496 89.3972 239.576 104.879 239.576 120.515C239.576 152.084 227.035 182.36 204.711 204.683C182.387 227.006 152.11 239.547 120.539 239.547" stroke="#808080" stroke-width="3" stroke-linecap="round" stroke-linejoin="round"/>
<path d="M120.5 21.004C146.884 21.004 172.189 31.4815 190.85 50.1328C209.511 68.7841 220.002 94.0825 220.015 120.466C220.015 133.532 217.44 146.469 212.439 158.54C207.437 170.61 200.106 181.577 190.864 190.813C181.623 200.05 170.652 207.375 158.579 212.371C146.505 217.366 133.566 219.934 120.5 219.928" stroke="#808080" stroke-width="3" stroke-linecap="round" stroke-linejoin="round"/>
<path d="M120.5 41.8032C141.376 41.8032 161.398 50.096 176.16 64.8572C190.922 79.6185 199.215 99.639 199.215 120.515C199.212 141.388 190.918 161.407 176.156 176.166C161.395 190.925 141.375 199.216 120.5 199.216" stroke="#808080" stroke-width="3" stroke-linecap="round" stroke-linejoin="round"/>
<path d="M119.369 60.9935C135.145 60.9935 150.275 67.2603 161.431 78.4154C172.586 89.5705 178.853 104.7 178.853 120.476C178.853 136.251 172.586 151.381 161.431 162.536C150.275 173.691 135.145 179.958 119.369 179.958" stroke="#808080" stroke-width="3" stroke-linecap="round" stroke-linejoin="round"/>
<path d="M119.876 91.2611C127.635 91.2611 135.076 94.3432 140.562 99.8293C146.048 105.315 149.131 112.756 149.131 120.515C149.131 128.273 146.048 135.714 140.562 141.2C135.076 146.686 127.635 149.768 119.876 149.768" stroke="#808080" stroke-width="3" stroke-linecap="round" stroke-linejoin="round"/>
<path d="M1.46274 120.505H120.5" stroke="#808080" stroke-width="3" stroke-linecap="round" stroke-linejoin="round"/>
<path d="M68.9533 90.7443L17.4065 60.9838" stroke="#808080" stroke-width="3" stroke-linecap="round" stroke-linejoin="round"/>
<path d="M68.9533 150.256L17.4065 180.016" stroke="#808080" stroke-width="3" stroke-linecap="round" stroke-linejoin="round"/>
<path d="M103.318 150.256L60.9862 223.584" stroke="#808080" stroke-width="3" stroke-linecap="round" stroke-linejoin="round"/>
<path d="M103.318 90.7443L60.9765 17.4058" stroke="#808080" stroke-width="3" stroke-linecap="round" stroke-linejoin="round"/>
<path d="M60.9765 17.4058L120.5 1.47241" stroke="#808080" stroke-width="3" stroke-linecap="round" stroke-linejoin="round"/>
<path d="M17.4065 60.9838L60.9765 17.4058" stroke="#808080" stroke-width="3" stroke-linecap="round" stroke-linejoin="round"/>
<path d="M1.46274 120.505L17.4065 60.9838" stroke="#808080" stroke-width="3" stroke-linecap="round" stroke-linejoin="round"/>
<path d="M17.4065 180.016L1.46274 120.505" stroke="#808080" stroke-width="3" stroke-linecap="round" stroke-linejoin="round"/>
<path d="M60.9862 223.584L17.4065 180.016" stroke="#808080" stroke-width="3" stroke-linecap="round" stroke-linejoin="round"/>
<path d="M120.5 239.537L60.9862 223.584" stroke="#808080" stroke-width="3" stroke-linecap="round" stroke-linejoin="round"/>
</svg>
