<svg width="256" height="253" viewBox="0 0 256 253" fill="none" xmlns="http://www.w3.org/2000/svg">
<path d="M199.13 139.05L175.05 180.75C172.413 178.903 169.27 177.914 166.05 177.92C163.994 177.917 161.958 178.32 160.058 179.106C158.158 179.891 156.432 181.044 154.978 182.498C153.524 183.952 152.371 185.678 151.586 187.578C150.8 189.478 150.397 191.514 150.4 193.57C150.4 194.16 150.4 194.73 150.49 195.3H103.41C103.47 194.725 103.501 194.148 103.5 193.57C103.503 191.514 103.1 189.478 102.314 187.578C101.529 185.678 100.376 183.952 98.922 182.498C97.4682 181.044 95.7421 179.891 93.8422 179.106C91.9422 178.32 89.9059 177.917 87.85 177.92C84.8077 177.918 81.8316 178.808 79.2899 180.48L55.61 139.48C58.2215 138.119 60.3873 136.036 61.85 133.48C63.8516 130.012 64.4489 125.909 63.5189 122.015C62.589 118.12 60.2025 114.729 56.85 112.54L80.0299 72.39C82.4049 73.7683 85.104 74.4898 87.85 74.48C89.9059 74.4827 91.9422 74.0796 93.8422 73.294C95.7421 72.5085 97.4682 71.3558 98.922 69.902C100.376 68.4483 101.529 66.722 102.314 64.8221C103.1 62.9221 103.503 60.8859 103.5 58.83H150.4C150.397 60.8859 150.8 62.9221 151.586 64.8221C152.371 66.722 153.524 68.4483 154.978 69.902C156.432 71.3558 158.158 72.5085 160.058 73.294C161.958 74.0796 163.994 74.4827 166.05 74.48C168.972 74.4857 171.837 73.6714 174.32 72.1299L197.94 113.04C194.83 115.313 192.671 118.657 191.879 122.427C191.086 126.197 191.718 130.127 193.65 133.46C194.972 135.759 196.858 137.683 199.13 139.05V139.05Z" stroke="#808080" stroke-width="3" stroke-miterlimit="10"/>
<path d="M103.46 58.8C103.463 60.8559 103.06 62.8922 102.274 64.7921C101.489 66.692 100.336 68.4184 98.8822 69.8722C97.4285 71.3259 95.7021 72.4786 93.8021 73.2641C91.9022 74.0497 89.8659 74.4527 87.81 74.45C85.064 74.4598 82.3651 73.7384 79.9901 72.3601C77.6115 70.9856 75.6369 69.0084 74.2658 66.6278C72.8946 64.2472 72.1753 61.5472 72.1801 58.8C72.1801 54.6547 73.8268 50.6791 76.758 47.7479C79.6892 44.8167 83.6646 43.17 87.81 43.17C89.1228 43.1673 90.4306 43.3354 91.7001 43.67C95.0632 44.5259 98.0452 46.4781 100.175 49.2181C102.305 51.9581 103.461 55.3297 103.46 58.8V58.8Z" stroke="#808080" stroke-width="3" stroke-miterlimit="10"/>
<path d="M97.09 23.62C103.198 23.62 108.15 18.6683 108.15 12.56C108.15 6.45173 103.198 1.5 97.09 1.5C90.9817 1.5 86.03 6.45173 86.03 12.56C86.03 18.6683 90.9817 23.62 97.09 23.62Z" stroke="#808080" stroke-width="3" stroke-miterlimit="10"/>
<path d="M40.53 56C46.6383 56 51.59 51.0483 51.59 44.94C51.59 38.8317 46.6383 33.88 40.53 33.88C34.4217 33.88 29.47 38.8317 29.47 44.94C29.47 51.0483 34.4217 56 40.53 56Z" stroke="#808080" stroke-width="3" stroke-miterlimit="10"/>
<path d="M94.75 23.63L91.71 43.71" stroke="#808080" stroke-width="3" stroke-miterlimit="10"/>
<path d="M51.15 48L73.47 52.6" stroke="#808080" stroke-width="3" stroke-miterlimit="10"/>
<path d="M61.8098 133.49C60.3472 136.046 58.1814 138.129 55.5698 139.49C53.2336 140.736 50.6185 141.366 47.9712 141.32C45.3239 141.275 42.732 140.555 40.4399 139.23C38.573 138.167 36.9538 136.718 35.6899 134.98C33.8656 132.538 32.7981 129.614 32.6204 126.57C32.4426 123.527 33.1623 120.498 34.6899 117.86C35.3425 116.722 36.1352 115.671 37.0498 114.73C39.4826 112.255 42.6676 110.657 46.106 110.187C49.5443 109.716 53.0416 110.4 56.0498 112.13L56.7698 112.57C60.1237 114.753 62.5149 118.137 63.4522 122.027C64.3894 125.918 63.8017 130.019 61.8098 133.49Z" stroke="#808080" stroke-width="3" stroke-miterlimit="10"/>
<path d="M12.81 105.55C18.9183 105.55 23.87 100.598 23.87 94.4901C23.87 88.3818 18.9183 83.4301 12.81 83.4301C6.70173 83.4301 1.75 88.3818 1.75 94.4901C1.75 100.598 6.70173 105.55 12.81 105.55Z" stroke="#808080" stroke-width="3" stroke-miterlimit="10"/>
<path d="M12.57 170.72C18.6783 170.72 23.63 165.768 23.63 159.66C23.63 153.552 18.6783 148.6 12.57 148.6C6.46174 148.6 1.51001 153.552 1.51001 159.66C1.51001 165.768 6.46174 170.72 12.57 170.72Z" stroke="#808080" stroke-width="3" stroke-miterlimit="10"/>
<path d="M21.22 102.05L37.09 114.72" stroke="#808080" stroke-width="3" stroke-miterlimit="10"/>
<path d="M20.53 151.99L35.68 134.96" stroke="#808080" stroke-width="3" stroke-miterlimit="10"/>
<path d="M219.74 134.96C218.461 136.684 216.845 138.13 214.99 139.21C212.567 140.611 209.812 141.336 207.013 141.308C204.214 141.279 201.474 140.5 199.08 139.05C196.815 137.69 194.933 135.777 193.61 133.49C191.678 130.157 191.046 126.227 191.839 122.457C192.631 118.687 194.79 115.343 197.9 113.07V113.07C198.36 112.74 198.84 112.43 199.34 112.13C202.347 110.396 205.845 109.711 209.285 110.182C212.724 110.652 215.909 112.252 218.34 114.73C219.255 115.673 220.051 116.724 220.71 117.86C222.23 120.495 222.948 123.517 222.776 126.555C222.604 129.592 221.549 132.513 219.74 134.96V134.96Z" stroke="#808080" stroke-width="3" stroke-miterlimit="10"/>
<path d="M242.61 105.55C248.718 105.55 253.67 100.598 253.67 94.4901C253.67 88.3818 248.718 83.4301 242.61 83.4301C236.502 83.4301 231.55 88.3818 231.55 94.4901C231.55 100.598 236.502 105.55 242.61 105.55Z" stroke="#808080" stroke-width="3" stroke-miterlimit="10"/>
<path d="M242.86 170.72C248.968 170.72 253.92 165.768 253.92 159.66C253.92 153.552 248.968 148.6 242.86 148.6C236.752 148.6 231.8 153.552 231.8 159.66C231.8 165.768 236.752 170.72 242.86 170.72Z" stroke="#808080" stroke-width="3" stroke-miterlimit="10"/>
<path d="M234.2 102.05L218.33 114.72" stroke="#808080" stroke-width="3" stroke-miterlimit="10"/>
<path d="M234.89 151.99L219.74 134.96" stroke="#808080" stroke-width="3" stroke-miterlimit="10"/>
<path d="M181.64 58.8C181.644 61.4596 180.971 64.0766 179.683 66.4036C178.395 68.7307 176.536 70.6912 174.28 72.1001C171.797 73.6416 168.932 74.4557 166.01 74.45C163.954 74.4527 161.918 74.0497 160.018 73.2641C158.118 72.4786 156.392 71.3259 154.938 69.8722C153.484 68.4184 152.332 66.692 151.546 64.7921C150.76 62.8921 150.357 60.8559 150.36 58.8C150.357 55.3306 151.511 51.9592 153.639 49.2191C155.767 46.4789 158.748 44.5262 162.11 43.67C163.383 43.336 164.694 43.1679 166.01 43.17C168.062 43.17 170.095 43.5743 171.991 44.3598C173.888 45.1453 175.611 46.2965 177.062 47.7479C178.514 49.1993 179.665 50.9224 180.45 52.8187C181.236 54.715 181.64 56.7474 181.64 58.8V58.8Z" stroke="#808080" stroke-width="3" stroke-miterlimit="10"/>
<path d="M156.74 23.62C162.848 23.62 167.8 18.6683 167.8 12.56C167.8 6.45173 162.848 1.5 156.74 1.5C150.632 1.5 145.68 6.45173 145.68 12.56C145.68 18.6683 150.632 23.62 156.74 23.62Z" stroke="#808080" stroke-width="3" stroke-miterlimit="10"/>
<path d="M213.3 56C219.408 56 224.36 51.0483 224.36 44.94C224.36 38.8317 219.408 33.88 213.3 33.88C207.192 33.88 202.24 38.8317 202.24 44.94C202.24 51.0483 207.192 56 213.3 56Z" stroke="#808080" stroke-width="3" stroke-miterlimit="10"/>
<path d="M159.08 23.63L162.12 43.71" stroke="#808080" stroke-width="3" stroke-miterlimit="10"/>
<path d="M202.67 48L180.35 52.6" stroke="#808080" stroke-width="3" stroke-miterlimit="10"/>
<path d="M103.46 193.57C103.461 194.148 103.43 194.725 103.37 195.3C103.017 198.457 101.711 201.432 99.6266 203.829C97.5421 206.226 94.7774 207.932 91.7001 208.72C90.4306 209.055 89.1228 209.223 87.81 209.22C84.7635 209.216 81.7843 208.324 79.2372 206.653C76.6901 204.981 74.686 202.603 73.4701 199.81C72.6159 197.841 72.1767 195.717 72.1801 193.57C72.1762 190.972 72.8207 188.414 74.0553 186.129C75.2899 183.843 77.0755 181.901 79.2501 180.48C81.7919 178.808 84.7677 177.918 87.81 177.92C89.8659 177.917 91.9022 178.32 93.8021 179.106C95.7021 179.892 97.4285 181.044 98.8822 182.498C100.336 183.952 101.489 185.678 102.274 187.578C103.06 189.478 103.463 191.514 103.46 193.57V193.57Z" stroke="#808080" stroke-width="3" stroke-miterlimit="10"/>
<path d="M97.09 250.91C103.198 250.91 108.15 245.958 108.15 239.85C108.15 233.742 103.198 228.79 97.09 228.79C90.9817 228.79 86.03 233.742 86.03 239.85C86.03 245.958 90.9817 250.91 97.09 250.91Z" stroke="#808080" stroke-width="3" stroke-miterlimit="10"/>
<path d="M40.53 218.53C46.6383 218.53 51.59 213.578 51.59 207.47C51.59 201.362 46.6383 196.41 40.53 196.41C34.4217 196.41 29.47 201.362 29.47 207.47C29.47 213.578 34.4217 218.53 40.53 218.53Z" stroke="#808080" stroke-width="3" stroke-miterlimit="10"/>
<path d="M94.75 228.78L91.71 208.7" stroke="#808080" stroke-width="3" stroke-miterlimit="10"/>
<path d="M51.15 204.41L73.47 199.8" stroke="#808080" stroke-width="3" stroke-miterlimit="10"/>
<path d="M181.64 193.57C181.643 195.717 181.204 197.841 180.35 199.81C179.135 202.604 177.131 204.983 174.584 206.654C172.037 208.326 169.057 209.218 166.01 209.22C164.694 209.222 163.383 209.054 162.11 208.72C159.033 207.934 156.268 206.228 154.185 203.831C152.101 201.433 150.799 198.457 150.45 195.3C150.4 194.73 150.36 194.16 150.36 193.57C150.357 191.514 150.76 189.478 151.546 187.578C152.332 185.678 153.484 183.952 154.938 182.498C156.392 181.044 158.118 179.892 160.018 179.106C161.918 178.32 163.954 177.917 166.01 177.92C169.23 177.915 172.373 178.903 175.01 180.75C177.062 182.199 178.735 184.12 179.889 186.351C181.043 188.582 181.643 191.058 181.64 193.57V193.57Z" stroke="#808080" stroke-width="3" stroke-miterlimit="10"/>
<path d="M156.74 250.91C162.848 250.91 167.8 245.958 167.8 239.85C167.8 233.742 162.848 228.79 156.74 228.79C150.632 228.79 145.68 233.742 145.68 239.85C145.68 245.958 150.632 250.91 156.74 250.91Z" stroke="#808080" stroke-width="3" stroke-miterlimit="10"/>
<path d="M213.3 218.53C219.408 218.53 224.36 213.578 224.36 207.47C224.36 201.362 219.408 196.41 213.3 196.41C207.192 196.41 202.24 201.362 202.24 207.47C202.24 213.578 207.192 218.53 213.3 218.53Z" stroke="#808080" stroke-width="3" stroke-miterlimit="10"/>
<path d="M159.08 228.78L162.12 208.7" stroke="#808080" stroke-width="3" stroke-miterlimit="10"/>
<path d="M202.67 204.41L180.35 199.8" stroke="#808080" stroke-width="3" stroke-miterlimit="10"/>
<path d="M122.25 113.41H127.55V138.96H122.58V122.19L116.02 134.68H113.23L106.69 122.19V138.96H101.72V113.41H107.05L114.61 127.95L122.25 113.41Z" fill="#808080"/>
<path d="M136.71 113.21H131.71V126.21H136.71V113.21Z" fill="#808080"/>
<path d="M153.71 126.17C153.766 128.559 153.223 130.925 152.13 133.05C151.123 134.97 149.572 136.549 147.67 137.59C145.583 138.713 143.239 139.272 140.87 139.21H131.41V128.71H136.47V134.77H140.87C142.355 134.819 143.822 134.434 145.09 133.66C146.242 132.907 147.152 131.838 147.71 130.58C148.327 129.193 148.634 127.688 148.61 126.17C148.639 124.637 148.325 123.116 147.69 121.72C147.12 120.485 146.203 119.442 145.05 118.72C143.789 117.966 142.339 117.588 140.87 117.63H138.71V113.21H140.87C143.357 113.124 145.82 113.722 147.99 114.94C149.85 116.047 151.343 117.679 152.28 119.63C153.248 121.673 153.737 123.91 153.71 126.17Z" fill="#808080"/>
<path d="M127.55 113.41V138.96H122.58V122.19L116.02 134.68H113.23L106.69 122.19V138.96H101.72V113.41H107.05L114.61 127.95L122.25 113.41H127.55Z" fill="#808080"/>
<path d="M153.71 126.17C153.766 128.559 153.223 130.925 152.13 133.05C151.123 134.97 149.572 136.549 147.67 137.59C145.583 138.713 143.239 139.272 140.87 139.21H131.41V128.71H136.47V134.77H140.87C142.355 134.819 143.822 134.434 145.09 133.66C146.242 132.907 147.152 131.838 147.71 130.58C148.327 129.193 148.634 127.688 148.61 126.17C148.639 124.637 148.325 123.116 147.69 121.72C147.12 120.485 146.203 119.442 145.05 118.72C143.789 117.966 142.339 117.588 140.87 117.63H138.71V113.21H140.87C143.357 113.124 145.82 113.722 147.99 114.94C149.85 116.047 151.343 117.679 152.28 119.63C153.248 121.673 153.737 123.91 153.71 126.17Z" fill="#808080"/>
<path d="M136.71 113.21H131.71V126.21H136.71V113.21Z" fill="#808080"/>
</svg>
