<svg width="242" height="239" viewBox="0 0 242 239" fill="none" xmlns="http://www.w3.org/2000/svg">
<path d="M168.455 229.417C182.691 223.439 195.629 214.81 206.56 203.999C217.51 193.197 226.25 180.414 232.306 166.347C232.459 165.978 232.622 165.609 232.776 165.23C232.929 164.851 233.092 164.472 233.246 164.094C239.04 149.923 242.012 134.782 242 119.5C242.014 104.218 239.041 89.0764 233.246 74.9065C233.092 74.5182 232.939 74.1395 232.776 73.7607L232.306 72.6432C226.253 58.5785 217.511 45.7979 206.56 35.0005C185.461 14.0416 157.199 1.61734 127.309 0.161039H127.204C126.312 0.161039 125.43 0.0852943 124.538 0.0568848H124.088C123.062 0.0568848 122.026 0.0568848 121 0.0568848C119.974 0.0568848 118.929 0.0568848 117.903 0.0568848H117.452C116.57 0.0568848 115.678 0.11369 114.787 0.161039H114.681C84.7942 1.61604 56.5347 14.0407 35.4401 35.0005C24.4861 45.7919 15.7442 58.57 9.69426 72.6337L9.20522 73.7796L8.74498 74.897C2.95227 89.0708 -0.0168447 104.215 0.000194999 119.5C-0.0158839 134.785 2.9532 149.929 8.74498 164.103L9.20522 165.211L9.69426 166.357C15.7463 180.422 24.4879 193.203 35.4401 203.999C46.3663 214.812 59.3011 223.441 73.536 229.417L74.7346 229.909L75.818 230.345C90.1738 236.076 105.516 239.015 121 239C136.481 239.014 151.82 236.075 166.173 230.345L167.266 229.909L168.455 229.417ZM166.383 227.797L165.31 228.233C151.337 233.754 136.433 236.611 121.384 236.652L106.569 223.242L121.412 211.197H123.148H123.282H123.848H125.277H125.555H126.216L127.405 211.121H127.818L128.479 211.073L129.524 210.979H130.071L130.694 210.922L131.653 210.818L132.181 210.752H132.554H132.871L133.772 210.638L134.271 210.562C134.808 210.486 135.354 210.411 135.891 210.316L136.352 210.25L138.02 209.956L138.413 209.88L140.168 209.539L140.456 209.473L142.373 209.056H142.517C155.316 206.061 167.32 200.401 177.727 192.456L177.967 192.266L179.443 191.111L179.865 190.77L180.469 190.278L181.121 189.728L181.677 189.264L182.205 188.81L182.32 188.715C182.473 188.573 182.627 188.431 182.79 188.298L183.403 187.749L183.758 187.437L183.835 187.361L184.382 186.859L184.497 186.755L185.072 186.225L185.292 186.016L186.088 185.24L186.683 184.672L186.788 184.558L187.747 183.545L188.198 183.09L188.303 182.976L189.339 181.887L189.694 181.499L189.847 181.338L190.883 180.183C190.959 180.088 191.046 180.003 191.122 179.918C202.942 166.541 210.533 150.037 212.956 132.445V132.275L213.186 130.438C213.186 130.277 213.186 130.125 213.186 129.964C213.243 129.434 213.301 128.904 213.349 128.364V128.137C213.349 127.966 213.349 127.796 213.349 127.625C213.349 127.18 213.426 126.678 213.454 126.28V125.883C213.454 125.883 213.454 125.788 213.454 125.741C213.454 125.693 213.454 125.485 213.454 125.362C213.454 125.239 213.454 124.86 213.454 124.604V124.528C213.454 124.405 213.454 124.273 213.454 124.14C213.454 124.008 213.454 123.932 213.454 123.818V123.724C213.454 123.591 213.454 123.458 213.454 123.326L224.002 137.995C224.101 138.137 224.233 138.255 224.386 138.339C224.539 138.422 224.709 138.47 224.884 138.478H224.942C225.106 138.48 225.269 138.447 225.42 138.382C225.57 138.316 225.705 138.22 225.814 138.099L239.306 122.947C238.933 136.868 236.063 150.613 230.829 163.544L230.359 164.681L229.899 165.76C217.827 193.552 195.404 215.7 167.266 227.627L166.383 227.797ZM75.5975 227.797L74.4469 227.314C46.3106 215.389 23.8882 193.245 11.8133 165.457L11.3531 164.349C11.1869 163.977 11.0335 163.607 10.8928 163.241C5.3017 149.449 2.40926 134.735 2.36858 119.879L15.9461 105.248L28.1429 119.907C28.1429 120.551 28.1429 121.195 28.1429 121.801C28.1429 121.905 28.1429 122.009 28.1429 122.123C28.1429 122.805 28.143 123.487 28.2293 124.159V124.235C29.3631 146.888 39.0158 168.308 55.2982 184.302L56.9379 185.884L57.5419 186.433L58.6063 187.38L59.3543 188.033C59.6707 188.308 59.9871 188.592 60.3131 188.857C60.6391 189.122 60.8502 189.312 61.1283 189.539L62.0391 190.297L62.8828 190.969C63.1897 191.215 63.4965 191.461 63.8417 191.698L64.676 192.342L65.6349 193.071L66.4402 193.649C66.795 193.905 67.1499 194.16 67.5143 194.407L68.2334 194.908L69.48 195.742L70.0552 196.121C70.5634 196.452 71.0813 196.774 71.5991 197.068L71.8772 197.247C81.1768 202.975 91.4331 207.025 102.168 209.208L103.012 209.378L104.306 209.625L105.447 209.814L106.483 209.984L107.729 210.164L108.688 210.297L109.983 210.458L110.942 210.562L112.236 210.695L113.195 210.78L114.461 210.875L115.487 210.941L116.695 210.998H117.069H117.845L104.086 222.172C103.954 222.274 103.848 222.403 103.773 222.551C103.699 222.698 103.658 222.86 103.654 223.024C103.654 223.188 103.688 223.349 103.754 223.499C103.82 223.649 103.917 223.784 104.038 223.896L117.922 236.472C103.784 236.115 89.8224 233.278 76.6907 228.091L75.5975 227.797ZM11.3531 74.6413L11.8133 73.5429C20.543 53.3761 34.8169 36.0268 53.0181 23.4607C71.2193 10.8945 92.6203 3.61373 114.796 2.44319H114.911C115.774 2.44319 116.647 2.36744 117.519 2.33903H117.96H120.55L135.421 15.8052L120.578 27.8509H119.121H118.661C116.398 27.9077 114.16 28.0434 111.948 28.258L110.587 28.4001L109.829 28.4853C109.206 28.5516 108.583 28.6368 107.959 28.722H107.758C92.2247 30.894 77.5142 36.9616 65.0307 46.3455L64.887 46.4402L63.4103 47.586L63.0268 47.8796L61.7706 48.8928L61.5885 49.0444L61.1856 49.3853L60.1694 50.2471L59.431 50.8815L58.5487 51.6676L58.2898 51.9043L58.2229 51.9611L57.7722 52.3778L57.657 52.4914C57.4173 52.6998 57.1872 52.9175 56.9571 53.1353L56.7557 53.3153L56.027 54.0255L55.375 54.6505L55.2599 54.7641L54.1381 55.91L53.697 56.3551C53.2943 56.7718 52.9105 57.1884 52.5174 57.6145L52.1531 57.9933L51.3188 58.9403C39.259 72.3958 31.5106 89.0812 29.0538 106.886C29.0491 106.943 29.0491 107 29.0538 107.057C28.9675 107.672 28.8908 108.288 28.8141 108.903C28.8141 109.055 28.8143 109.216 28.7663 109.367C28.7088 109.898 28.6511 110.428 28.6032 110.968V111.195C28.6032 111.365 28.6032 111.536 28.6032 111.706C28.6032 112.161 28.5266 112.653 28.4978 113.051L28.4402 113.998C28.4402 114.254 28.4402 114.509 28.3923 114.756V114.831C28.3923 114.954 28.3923 115.087 28.3923 115.22C28.3923 115.352 28.3923 115.769 28.3923 116.044L17.8927 101.365C17.7924 101.224 17.6609 101.107 17.508 101.023C17.3552 100.94 17.1851 100.891 17.0106 100.882C16.8311 100.868 16.6508 100.896 16.4843 100.964C16.3178 101.031 16.1696 101.136 16.0517 101.271L2.56031 116.422C2.93244 102.497 5.80558 88.7483 11.0462 75.8157C11.1165 75.4053 11.2188 75.0138 11.3531 74.6413ZM127.079 2.43371H127.194C149.371 3.60508 170.773 10.8873 188.974 23.4552C207.176 36.0231 221.449 53.3743 230.177 73.5429L230.637 74.613L231.107 75.7493C236.691 89.5465 239.58 104.263 239.622 119.121L225.325 135.163L213.819 119.121C213.819 118.733 213.819 118.354 213.819 117.966C213.819 117.739 213.819 117.511 213.819 117.275V117.095C213.819 116.621 213.819 116.148 213.761 115.674C213.761 115.485 213.761 115.295 213.761 115.116C213.766 115.034 213.766 114.951 213.761 114.869C213.761 114.405 213.704 113.922 213.675 113.468V113.373C213.675 113.24 213.675 113.117 213.675 112.985C212.46 95.2938 206.023 78.3421 195.159 64.2245L194.977 63.9784C194.622 63.5238 194.267 63.0313 193.903 62.6241C193.778 62.4537 193.644 62.2926 193.51 62.1222L192.551 61.0048L192.369 60.7775L191.957 60.304L191.161 59.3571L190.451 58.552L189.713 57.7471L189.473 57.4914L189.406 57.4157L188.907 56.8853L188.831 56.8096L188.227 56.1657L188.044 55.9857C187.776 55.7016 187.498 55.427 187.229 55.1524L186.683 54.6032L186.577 54.5085L185.503 53.4667L185.081 53.0596L184.976 52.9649L183.816 51.8948L183.48 51.5917L183.308 51.4308L182.09 50.3702L181.869 50.1712C168.327 38.506 151.624 31.0102 133.82 28.6084H133.6L131.787 28.3811L131.25 28.3244L129.697 28.1728H129.438H128.882L127.568 28.0687L126.609 28.0118L125.881 27.9645H125.785H125.401H125.047H124.97H124.567L139.42 17.5477C139.564 17.4497 139.683 17.32 139.768 17.1688C139.853 17.0177 139.901 16.8491 139.909 16.6764C139.922 16.5002 139.894 16.3233 139.828 16.1592C139.761 15.9951 139.658 15.8482 139.525 15.7294L124.183 2.34851H124.548C125.344 2.35798 126.216 2.38636 127.079 2.43371ZM30.5689 124.083C30.5689 123.421 30.5113 122.758 30.4921 122.095C30.4921 121.991 30.4921 121.886 30.4921 121.782C30.4921 121.025 30.4921 120.258 30.4921 119.5C30.4921 118.742 30.4921 118.051 30.4921 117.322V116.574C30.4921 116.1 30.4921 115.627 30.4921 115.144C30.4921 114.879 30.4922 114.604 30.5401 114.329C30.5401 113.865 30.5977 113.382 30.6361 112.928L30.6935 112.199C30.6935 111.706 30.7799 111.252 30.8278 110.712C30.8278 110.485 30.8279 110.257 30.895 110.04C30.9621 109.443 31.0292 108.846 31.1059 108.259V108.023C33.6517 88.5975 42.6016 70.5404 56.5736 56.6392L79.3084 58.0502L78.7042 78.4861C69.2567 87.9133 63.365 100.253 62.0103 113.449C62.0057 113.477 62.0057 113.506 62.0103 113.534C61.924 114.377 61.857 115.229 61.809 116.081C61.809 116.233 61.809 116.375 61.809 116.517C61.7515 117.464 61.7322 118.496 61.7322 119.5C61.7322 120.504 61.7323 121.489 61.809 122.474C61.809 122.616 61.809 122.758 61.809 122.909C61.809 123.761 61.924 124.614 62.0103 125.457C62.0057 125.485 62.0057 125.513 62.0103 125.542C63.262 137.883 68.492 149.501 76.9304 158.686L56.0654 157.739C55.9092 157.732 55.7531 157.757 55.6066 157.81C55.46 157.864 55.3258 157.946 55.2119 158.052C55.099 158.16 55.0095 158.29 54.9485 158.433C54.8875 158.576 54.8566 158.73 54.8572 158.885V180.666C40.2023 165.294 31.5507 145.282 30.4444 124.197C30.4973 124.174 30.5409 124.134 30.5689 124.083ZM155.644 202.106L154.781 202.446C133.09 211.002 108.9 211.002 87.2095 202.446L86.3464 202.106L85.4931 201.755C75.0069 197.308 65.4602 190.953 57.3501 183.024L58.7788 160.571L79.4714 161.167C89.0144 170.496 101.505 176.314 114.863 177.654H114.959C115.813 177.74 116.676 177.796 117.539 177.844H117.98C118.938 177.901 119.984 177.919 121 177.919C122.017 177.919 123.014 177.92 124.011 177.844H124.452C125.315 177.844 126.178 177.74 127.031 177.654H127.127C139.622 176.419 151.385 171.258 160.688 162.929L159.729 183.526C159.72 183.68 159.743 183.835 159.798 183.98C159.852 184.125 159.936 184.257 160.045 184.369C160.153 184.48 160.282 184.569 160.426 184.629C160.569 184.689 160.724 184.72 160.88 184.719H182.934C175.205 191.878 166.268 197.647 156.526 201.765L155.644 202.106ZM80.6604 55.8342L58.894 54.4895C74.4841 39.9074 94.829 31.2947 116.273 30.1994H116.35L118.373 30.1236H118.689C119.456 30.1236 120.223 30.1236 121 30.1236H123.196H123.953H125.401H126.216L127.655 30.2183L128.355 30.2751L129.918 30.4077L130.55 30.474L132.401 30.6823H132.593C152.287 33.2009 170.592 42.0572 184.679 55.8816V78.8554L162.625 77.8233C158.046 73.3352 152.749 69.6236 146.947 66.8382L146.468 66.6014C145.902 66.3363 145.317 66.0806 144.742 65.8249L143.639 65.3609L142.488 64.9064C141.913 64.6886 141.328 64.4612 140.743 64.2624L140.206 64.0825C134.037 61.9785 127.556 60.9032 121.029 60.9007C114.483 60.898 107.982 61.9733 101.794 64.0825L101.257 64.2624C100.672 64.4612 100.097 64.6886 99.5117 64.9064L98.3611 65.3609L97.2585 65.8249C96.6832 66.0806 96.0982 66.3363 95.5325 66.6014L95.0626 66.8382C90.0206 69.2521 85.3573 72.3714 81.2166 76.0997L81.7726 56.8853C81.7493 56.6061 81.6233 56.3451 81.4184 56.1514C81.2134 55.9577 80.9438 55.8448 80.6604 55.8342ZM211.422 114.907C211.422 115.57 211.479 116.233 211.498 116.905V117.038C211.498 117.095 211.498 117.161 211.498 117.218C211.498 117.975 211.498 118.733 211.498 119.5C211.498 120.267 211.498 120.949 211.498 121.669V122.417C211.498 122.89 211.498 123.364 211.45 123.847C211.45 124.121 211.45 124.386 211.45 124.661C211.45 125.125 211.393 125.608 211.355 126.063C211.355 126.309 211.355 126.546 211.297 126.792C211.297 127.294 211.211 127.739 211.163 128.288C211.163 128.506 211.163 128.733 211.096 128.96L210.894 130.731V130.968C208.341 150.393 199.389 168.449 185.417 182.351L162.682 180.94L163.286 160.504C172.734 151.077 178.626 138.738 179.98 125.542C179.98 125.542 179.98 125.485 179.98 125.457C180.067 124.614 180.124 123.761 180.172 122.909C180.172 122.758 180.172 122.616 180.172 122.474C180.23 121.527 180.249 120.494 180.249 119.5C180.249 118.506 180.249 117.502 180.172 116.517C180.172 116.375 180.172 116.233 180.172 116.081C180.172 115.229 180.067 114.377 179.98 113.534C179.98 113.534 179.98 113.477 179.98 113.449C178.726 101.11 173.5 89.494 165.07 80.3044L185.925 81.2513H185.983C186.278 81.2493 186.562 81.1377 186.779 80.9388C186.892 80.8327 186.981 80.7049 187.042 80.5632C187.103 80.4215 187.134 80.2689 187.133 80.1149V58.3342C201.79 73.7086 210.442 93.7242 211.546 114.812C211.546 114.812 211.422 114.879 211.422 114.907ZM64.1774 116.631C64.1774 116.498 64.1774 116.356 64.1774 116.223C64.2253 115.4 64.2828 114.576 64.3691 113.771C64.3645 113.743 64.3645 113.714 64.3691 113.686C65.3784 104.199 68.8116 95.122 74.3465 87.3053C79.8813 79.4885 87.3363 73.1888 96.0119 68.9973L96.4241 68.7985C96.9899 68.5333 97.5652 68.2776 98.131 68.0314L99.1474 67.5958L100.298 67.1507C100.845 66.9424 101.382 66.734 101.928 66.5446L102.484 66.3552C104.441 65.6992 106.432 65.1491 108.448 64.7074C112.54 63.799 116.72 63.3385 120.914 63.3344C127.21 63.3332 133.463 64.3603 139.42 66.3741L139.89 66.5352C140.465 66.734 141.041 66.9519 141.606 67.1697L142.671 67.5863L143.773 68.0598C144.32 68.2965 144.857 68.5333 145.394 68.789L145.883 69.0257C151.381 71.685 156.41 75.2025 160.774 79.4426C160.832 79.5936 160.922 79.7306 161.038 79.8449C161.154 79.9591 161.292 80.0479 161.445 80.1054C170.506 89.1682 176.171 101.009 177.506 113.676C177.502 113.704 177.502 113.733 177.506 113.761C177.583 114.566 177.641 115.39 177.689 116.214C177.689 116.347 177.689 116.489 177.689 116.621C177.689 117.568 177.756 118.515 177.756 119.462C177.756 120.409 177.756 121.356 177.689 122.303C177.689 122.436 177.689 122.578 177.689 122.71C177.689 123.534 177.583 124.358 177.506 125.173C177.501 125.197 177.501 125.223 177.506 125.248C176.172 137.911 170.511 149.748 161.455 158.809C161.301 158.865 161.161 158.953 161.045 159.068C160.93 159.182 160.84 159.32 160.784 159.472C151.607 168.421 139.618 174.015 126.792 175.334H126.715C125.89 175.41 125.056 175.467 124.222 175.514H123.81C122.851 175.514 121.892 175.58 120.933 175.58C119.974 175.58 119.015 175.58 118.056 175.514H117.644C116.81 175.514 115.976 175.41 115.161 175.334H115.074C102.252 174.016 90.2668 168.425 81.0918 159.482C81.0336 159.331 80.9436 159.194 80.828 159.079C80.7123 158.965 80.5735 158.876 80.4206 158.819C71.3591 149.758 65.697 137.916 64.3691 125.248C64.365 125.223 64.365 125.198 64.3691 125.173C64.2828 124.358 64.2253 123.534 64.1774 122.71C64.1774 122.578 64.1774 122.436 64.1774 122.303C64.1295 121.356 64.1006 120.409 64.1006 119.462C64.1006 118.515 64.1295 117.578 64.1774 116.631Z" fill="#808080"/>
<path d="M120.837 107.379V131.574H116.071V115.693L109.781 127.521H107.116L100.835 115.693V131.574H96.0693V107.379H101.18L108.429 121.148L115.755 107.379H120.837Z" fill="#808080"/>
<path d="M145.931 119.462C145.984 121.725 145.463 123.965 144.416 125.977C143.45 127.795 141.962 129.291 140.139 130.277C138.138 131.34 135.89 131.869 133.619 131.811H124.548V121.868H129.4V127.606H133.619C135.042 127.653 136.449 127.288 137.665 126.555C138.77 125.842 139.642 124.829 140.178 123.638C140.769 122.325 141.064 120.9 141.04 119.462C141.068 118.01 140.767 116.57 140.158 115.248C139.612 114.078 138.732 113.091 137.627 112.407C136.418 111.693 135.027 111.335 133.619 111.375H131.548V107.189H133.619C136.003 107.107 138.365 107.674 140.446 108.828C142.23 109.876 143.661 111.421 144.559 113.269C145.488 115.203 145.957 117.322 145.931 119.462Z" fill="#808080"/>
<path d="M129.63 107.189H124.836V119.5H129.63V107.189Z" fill="#808080"/>
</svg>
