<svg width="261" height="261" viewBox="0 0 261 261" fill="none" xmlns="http://www.w3.org/2000/svg">
<path d="M130.5 1.5L92.72 39.29L66.62 65.39H66.61L66 66.01L65.76 66.24V66.25L1.5 130.5L39.28 39.29L130.5 1.5Z" stroke="#808080" stroke-width="3" stroke-linecap="round" stroke-linejoin="round"/>
<path d="M130.5 259.5L39.28 221.72L1.5 130.5L39.28 168.29L66 195L92.72 221.72L130.5 259.5Z" stroke="#808080" stroke-width="3" stroke-linecap="round" stroke-linejoin="round"/>
<path d="M259.5 130.5L221.72 92.72L195 66L130.5 1.5L221.72 39.29L259.5 130.5Z" stroke="#808080" stroke-width="3" stroke-linecap="round" stroke-linejoin="round"/>
<path d="M195 66L194.76 66.25L130.5 130.51V1.5L195 66Z" stroke="#808080" stroke-width="3" stroke-linecap="round" stroke-linejoin="round"/>
<path d="M130.5 131.91V259.5L92.72 221.72L66 195L66.24 194.76L129.12 131.89L130.5 131.91Z" stroke="#808080" stroke-width="3" stroke-linecap="round" stroke-linejoin="round"/>
<path d="M39.81 130.92L129.12 131.89L66.24 194.76L66 195L39.28 168.29L1.5 130.5L39.81 130.92Z" stroke="#808080" stroke-width="3" stroke-linecap="round" stroke-linejoin="round"/>
<path d="M130.5 130.51L66 66.01L66.62 65.39L92.72 39.29L130.5 1.5V130.51Z" stroke="#808080" stroke-width="3" stroke-linecap="round" stroke-linejoin="round"/>
<path d="M259.5 130.5L256.72 133.28L220.6 132.89L131.92 131.92L195 195L194.39 195.62L168.29 221.72L130.5 259.5V131.91L129.12 131.89L130.5 130.51L194.76 66.25L195 66L221.72 92.72L259.5 130.5Z" stroke="#808080" stroke-width="3" stroke-linecap="round" stroke-linejoin="round"/>
<path d="M259.5 130.5L258.34 133.3L221.72 221.72L130.5 259.5L168.29 221.72L194.39 195.62L195 195L195.24 194.77V194.76L259.5 130.5Z" stroke="#808080" stroke-width="3" stroke-linecap="round" stroke-linejoin="round"/>
<path d="M221.72 221.72L195.1 195.1L195 195" stroke="#808080" stroke-width="3" stroke-linecap="round" stroke-linejoin="round"/>
<path d="M39.28 39.29L65.9 65.91L66 66.01" stroke="#808080" stroke-width="3" stroke-linecap="round" stroke-linejoin="round"/>
<path d="M131.92 131.92L130.5 130.51" stroke="#808080" stroke-width="3" stroke-linecap="round" stroke-linejoin="round"/>
<path d="M221.72 39.29L195 66" stroke="#808080" stroke-width="3" stroke-linecap="round" stroke-linejoin="round"/>
<path d="M66 195L39.28 221.72" stroke="#808080" stroke-width="3" stroke-linecap="round" stroke-linejoin="round"/>
<path d="M256.72 133.28L195.24 194.76V194.77L195 195L131.92 131.92L220.6 132.89L256.72 133.28Z" stroke="#808080" stroke-width="3" stroke-linecap="round" stroke-linejoin="round"/>
<path d="M130.5 130.51L129.12 131.89L39.81 130.92L1.5 130.5L65.76 66.25V66.24L66 66.01L130.5 130.51Z" stroke="#808080" stroke-width="3" stroke-linecap="round" stroke-linejoin="round"/>
<path d="M39.81 130.92L129.12 131.89L66.24 194.76L39.81 130.92Z" stroke="#808080" stroke-width="3" stroke-linecap="round" stroke-linejoin="round"/>
<path d="M130.5 39.13V130.51L66 66.01L65.76 66.24L65.9 65.91L66.01 65.64L66.61 65.39H66.62L130.27 39.03L130.5 39.13Z" stroke="#808080" stroke-width="3" stroke-linecap="round" stroke-linejoin="round"/>
<path d="M220.6 132.89L131.92 131.92L195 195L195.24 194.77L195.1 195.1L194.99 195.37L194.39 195.62L130.73 221.97L130.5 221.87V131.91L129.12 131.89L130.5 130.51L194.76 66.25L221.47 130.77L220.6 132.89Z" stroke="#808080" stroke-width="3" stroke-linecap="round" stroke-linejoin="round"/>
<path d="M130.5 131.91V130.51" stroke="#808080" stroke-width="3" stroke-linecap="round" stroke-linejoin="round"/>
<path d="M131.92 131.92L130.5 131.91" stroke="#808080" stroke-width="3" stroke-linecap="round" stroke-linejoin="round"/>
<path d="M256.72 133.28L258.34 133.3L259.5 133.31" stroke="#808080" stroke-width="3" stroke-linecap="round" stroke-linejoin="round"/>
</svg>
